# xmcd
#
# Track frame offsets:
#	157
#	20615
#	34302
#	50710
#	71560
#	86585
#	95560
#	112312
#	131250
#	144355
#	160830
#
# Disc length: 2426 seconds
#
# Revision: 2
# Processed by: cddbd v1.5.2PL0 Copyright (c) Steve Scherf et al.
# Submitted via: EZCDAudioConverter 8.2.2.1
#
DISCID=9a09780b
DTITLE=PATRÍCIA MARX - NEOCLÁSSICO [CD TCD 1007-2) CAMERATI
DYEAR=1992
DGENRE=World Pop
TTITLE0=SERENO (BY GILMAR SINISTRO)
TTITLE1=TOME POLCA (BY GILMAR SINISTRO)
TTITLE2=ROSA (BY GILMAR SINISTRO)
TTITLE3=BOSSA MEDLEY: SAMBA DE UMA NOTA SÓ - VIVO SONHANDO (BY GILMAR SINISTRO
TTITLE3=)
TTITLE4=CONVERSA DE BOTEQUIM (BY GILMAR SINISTRO)
TTITLE5=DUAS CONTAS (BY GILMAR SINISTRO)
TTITLE6=PICOLA MARINA (BY GILMAR SINISTRO)
TTITLE7=VOLTAR PRA FICAR (BY GILMAR SINISTRO)
TTITLE8=SAMBA ITALIANO (BY GILMAR SINISTRO)
TTITLE9=DORME CAROLINA (BY GILMAR SINISTRO)
TTITLE10=SERENO (INSTRUMENTAL) (BY GILMAR SINISTRO)
EXTD=
EXTT0=
EXTT1=
EXTT2=
EXTT3=
EXTT4=
EXTT5=
EXTT6=
EXTT7=
EXTT8=
EXTT9=
EXTT10=
PLAYORDER=
